<svg xmlns="http://www.w3.org/2000/svg" xmlns:xlink="http://www.w3.org/1999/xlink" version="1.1" width="350" height="63.64" xml:space="preserve" fill="var(--accent)" style=""><rect id="backgroundrect" width="100%" height="100%" x="0" y="0" fill="none" stroke="none"/>
<defs>
</defs>



<g class="currentLayer" style=""><title>Layer 1</title><g id="svg_1" class="selected" fill-opacity="1" fill="#ff0090">
	<path style="stroke: none; stroke-width: 1; stroke-dasharray: none; stroke-linecap: butt; stroke-dashoffset: 0; stroke-linejoin: miter; stroke-miterlimit: 4; fill-rule: nonzero; opacity: 1;" d="M56.233999999999995,44.086499259948724 h-6.192 c-2.8379999999999996,0 -5.332,2.134 -6.106,5.141 H24.843999999999998 c-3.526,0 -6.45,-3.298 -6.45,-7.2749999999999995 s2.924,-7.2749999999999995 6.45,-7.2749999999999995 h22.532 c5.2459999999999996,0 9.459999999999999,-4.753 9.459999999999999,-10.67 c0,-5.917 -4.214,-10.67 -9.459999999999999,-10.67 H28.541999999999998 v-0.485 c0,-3.9769999999999994 -2.8379999999999996,-7.178 -6.364,-7.178 H15.986 c-3.526,0 -6.364,3.2009999999999996 -6.364,7.178 v1.843 c0,3.9769999999999994 2.8379999999999996,7.178 6.364,7.178 h6.192 c2.8379999999999996,0 5.332,-2.134 6.106,-5.141 h19.092 c3.526,0 6.45,3.298 6.45,7.2749999999999995 s-2.924,7.2749999999999995 -6.45,7.2749999999999995 H24.843999999999998 c-5.2459999999999996,0 -9.459999999999999,4.753 -9.459999999999999,10.67 s4.214,10.67 9.459999999999999,10.67 h18.834 v0.485 c0,3.9769999999999994 2.8379999999999996,7.178 6.364,7.178 h6.192 c3.526,0 6.364,-3.2009999999999996 6.364,-7.178 v-1.843 C62.598,47.28749925994873 59.67399999999999,44.086499259948724 56.233999999999995,44.086499259948724 zM25.532,14.792499259948727 c0,2.037 -1.4620000000000002,3.783 -3.354,3.783 H15.986 c-1.806,0 -3.354,-1.649 -3.354,-3.783 v-1.843 c0,-2.037 1.4620000000000002,-3.783 3.354,-3.783 h6.192 c1.806,0 3.354,1.649 3.354,3.783 V14.792499259948727 zM59.587999999999994,53.107499259948725 c0,2.037 -1.4620000000000002,3.783 -3.354,3.783 h-6.192 c-1.806,0 -3.354,-1.649 -3.354,-3.783 v-1.843 c0,-2.037 1.4620000000000002,-3.783 3.354,-3.783 h6.192 c1.806,0 3.354,1.649 3.354,3.783 V53.107499259948725 z" stroke-linecap="round" stroke-width="0" id="svg_2" fill="#ff0090"/>
</g><g style="" id="svg_3">
</g><g style="" id="svg_6" class="" fill-opacity="1" fill="#ff0090">
		<text xml:space="preserve" font-family="'Open Sans', sans-serif" font-size="50" font-style="normal" font-weight="normal" style="stroke: none; stroke-width: 1; stroke-dasharray: none; stroke-linecap: butt; stroke-dashoffset: 0; stroke-linejoin: miter; stroke-miterlimit: 4; fill-rule: nonzero; opacity: 1; white-space: pre;" transform="matrix(1,0,0,1,283.05,35.03) " stroke-width="0" id="svg_7" fill="#ff0090"><tspan x="-214.5" y="16.02" style="font-size: 51px; font-style: italic; font-weight: bold; " id="svg_8">FileFlows</tspan></text>
</g></g></svg>