<svg xmlns="http://www.w3.org/2000/svg" xmlns:xlink="http://www.w3.org/1999/xlink" width="520" height="105" fill="#ff0090" version="1.1" viewBox="0 0 315.15 63.64" xml:space="preserve"><g><path style="stroke:none;stroke-width:1;stroke-dasharray:none;stroke-linecap:butt;stroke-dashoffset:0;stroke-linejoin:miter;stroke-miterlimit:4;fill-rule:nonzero;opacity:1" stroke-linecap="round" d="M 55.4 43.4 h -7.2 c -3.3 0 -6.2 2.2 -7.1 5.3 H 18.9 c -4.1 0 -7.5 -3.4 -7.5 -7.5 s 3.4 -7.5 7.5 -7.5 h 26.2 c 6.1 0 11 -4.9 11 -11 c 0 -6.1 -4.9 -11 -11 -11 H 23.2 v -0.5 c 0 -4.1 -3.3 -7.4 -7.4 -7.4 H 8.6 c -4.1 0 -7.4 3.3 -7.4 7.4 v 1.9 c 0 4.1 3.3 7.4 7.4 7.4 h 7.2 c 3.3 0 6.2 -2.2 7.1 -5.3 h 22.2 c 4.1 0 7.5 3.4 7.5 7.5 s -3.4 7.5 -7.5 7.5 H 18.9 c -6.1 0 -11 4.9 -11 11 s 4.9 11 11 11 h 21.9 v 0.5 c 0 4.1 3.3 7.4 7.4 7.4 h 7.2 c 4.1 0 7.4 -3.3 7.4 -7.4 v -1.9 C 62.8 46.7 59.4 43.4 55.4 43.4 z M 19.7 13.2 c 0 2.1 -1.7 3.9 -3.9 3.9 H 8.6 c -2.1 0 -3.9 -1.7 -3.9 -3.9 v -1.9 c 0 -2.1 1.7 -3.9 3.9 -3.9 h 7.2 c 2.1 0 3.9 1.7 3.9 3.9 V 13.2 z M 59.3 52.7 c 0 2.1 -1.7 3.9 -3.9 3.9 h -7.2 c -2.1 0 -3.9 -1.7 -3.9 -3.9 v -1.9 c 0 -2.1 1.7 -3.9 3.9 -3.9 h 7.2 c 2.1 0 3.9 1.7 3.9 3.9 V 52.7 z" transform="matrix(0.86 0 0 0.97 36.11 32.98) translate(-32, -31.95)"/></g><g><text font-family="'Open Sans', sans-serif" font-size="18" font-style="normal" font-weight="normal" xml:space="preserve" style="stroke:none;stroke-width:1;stroke-dasharray:none;stroke-linecap:butt;stroke-dashoffset:0;stroke-linejoin:miter;stroke-miterlimit:4;fill-rule:nonzero;opacity:1;white-space:pre" transform="matrix(1 0 0 1 503 27.79)"><tspan x="-432.45" y=".31" style="font-size:1px;font-style:italic;font-weight:700">FileFlows</tspan></text></g><g><text font-family="'Open Sans', sans-serif" font-size="50" font-style="normal" font-weight="normal" xml:space="preserve" style="stroke:none;stroke-width:1;stroke-dasharray:none;stroke-linecap:butt;stroke-dashoffset:0;stroke-linejoin:miter;stroke-miterlimit:4;fill-rule:nonzero;opacity:1;white-space:pre" transform="matrix(1 0 0 1 283.05 35.03)"><tspan x="-214.5" y="16.02" style="font-size:51px;font-style:italic;font-weight:700">FileFlows</tspan></text></g></svg>