<svg version="1.2" xmlns="http://www.w3.org/2000/svg" viewBox="0 0 2400 500" width="2400" height="500"><style>tspan{white-space:pre}.a{stroke:#ff0090;stroke-width:33}.b{fill:#ff0090;stroke:#ff0090;stroke-width:7}.c{font-size: 500px;fill: #ff0090;font-weight: 700;font-style: italic;font-family: "SourceSansPro-BoldItalic", "Source Sans Pro"}</style><circle class="a" cx="250.1" cy="250.2" r="232.1"/><path fill-rule="evenodd" class="b" d="m421.8 349.6v10.1c0 21.7-17.4 39.1-39.1 39.1h-38.1c-21.7 0-39.1-17.4-39.1-39.1v-2.7h-115.9c-32.2 0-58.2-25.9-58.2-58.2 0-32.2 26-58.2 58.2-58.2h138.6c21.7 0 39.7-17.9 39.7-39.6 0-21.7-18-39.7-39.7-39.7h-117.4c-4.8 16.4-20.1 28-37.6 28h-38.1c-21.6 0-39.1-17.4-39.1-39.1v-10.1c0-21.6 17.5-39.1 39.1-39.1h38.1c21.7 0 39.2 17.5 39.2 39.1v2.7h115.8c32.3 0 58.2 25.9 58.2 58.2 0 32.2-25.9 58.2-58.2 58.2h-138.6c-21.7 0-39.6 17.9-39.6 39.6 0 21.7 17.9 39.7 39.6 39.7h117.5c4.7-16.4 20.1-28 37.5-28h38.1c21.2 0 39.1 17.4 39.1 39.1zm-307.3-200.2c0 12.1 9.8 22 21.9 22h35.5c12.1 0 22-9.9 22-22v-7.4c0-12.1-9.9-22-22-22h-35.5c-12.1 0-21.9 9.9-21.9 22zm209.5 208.9c0 12.1 9.8 21.9 21.9 21.9h35.5c12.1 0 21.9-9.8 21.9-21.9v-7.4c0-12.2-9.8-22-21.9-22h-35.5c-12.1 0-21.9 9.8-21.9 22z"/><text style="transform:matrix(1,0,0,1,523,426.424)" ><tspan x="0" y="0" class="c" dx="0" >F</tspan><tspan  y="0" class="c" dx="0" >i</tspan><tspan  y="0" class="c" dx="0" >l</tspan><tspan  y="0" class="c" dx="0" >e</tspan><tspan  y="0" class="c" dx="0" >F</tspan><tspan  y="0" class="c" dx="0" >l</tspan><tspan  y="0" class="c" dx="0" >o</tspan><tspan  y="0" class="c" dx="0" >w</tspan><tspan  y="0" class="c" dx="0" >s</tspan><tspan  y="0" class="c" dx="0" >
</tspan></text></svg>